<svg xmlns="http://www.w3.org/2000/svg" version="1.1" xmlns:xlink="http://www.w3.org/1999/xlink" xmlns:svgjs="http://svgjs.dev/svgjs" viewBox="0 0 1920 1080"><rect width="1920" height="1080" fill="#48ceff"></rect><g transform="matrix(1.15,0,0,1.15,-134.96176643371564,-81)"><path d="M0,-1080C20.129992474789265,-973.2073731706462,137.6357533560918,-605.1691371416879,120.7799548487356,-439.2442390238773C103.92415634137939,-273.3193409060667,-69.54014410863738,-233.59159195912332,-101.1347910441373,-84.45061129313646C-132.72943797963723,64.6903693728504,-72.6452890413394,251.91422292281484,-68.78792676426397,455.60164497204386C-64.93056448718855,659.2890670212729,-69.76084532216117,960.1353762672172,-77.99061738168479,1137.6739210022376C-86.2203894412084,1315.212465737258,-131.16499535168646,1350.4452335492058,-118.16655912140567,1520.8329133821662C-105.16812289112487,1691.2205932151267,-19.694426520234277,2053.472152230361,0,2160L 1920 2160 L 1920 -1080 Z" fill="url(&quot;#SvgjsLinearGradient3631&quot;)"></path><path d="M274.2857142857143,-1080C257.5242833164391,-984.5856815495739,183.6963012945381,-677.3053008533415,173.71712847006305,-507.5140892974433C163.737955645588,-337.7228777415452,216.16653404325257,-186.27675778746186,214.41067733886402,-61.25273066461125C212.65482063447547,63.77129645823936,171.65294926394884,103.83895297163139,163.1819882437318,242.63007343966038C154.71102722351478,381.42119390768937,152.11867609333103,611.0026655969243,163.5849112175618,771.4939921435628C175.05114634179256,931.9853186902012,215.30879100358294,1056.7160491776344,231.97939898911642,1205.578032719491C248.6500069746499,1354.4400162613474,256.5575065813296,1505.5955655146163,263.6085591307626,1664.665893394701C270.6596116801956,1823.7362212747857,272.5061884265557,2077.4443155657837,274.2857142857143,2160L 1920 2160 L 1920 -1080 Z" fill="url(&quot;#SvgjsLinearGradient3632&quot;)"></path><path d="M548.5714285714286,-1080C535.694461615255,-961.1060636618058,486.1621953106393,-618.045268311652,471.309626834387,-366.63638197083486C456.45705835813476,-115.22749563001773,442.72631105317316,149.11420702469167,459.4560177139152,428.45331804490274C476.1857243746572,707.7924290651138,556.8352983225868,1020.8071704912488,571.6878667988391,1309.3982841504317C586.5404352750913,1597.9893978096145,552.424168275997,2018.2330473584052,548.5714285714286,2160L 1920 2160 L 1920 -1080 Z" fill="url(&quot;#SvgjsLinearGradient3633&quot;)"></path><path d="M822.8571428571428,-1080C827.3504568560771,-993.2140847691358,833.9078123614037,-684.7172020162869,849.8170268507488,-559.2845086148147C865.7262413400939,-433.8518152133426,919.8856432466255,-435.03778283796686,918.3124297932136,-327.40383959116707C916.7392163398017,-219.76989634436728,851.235707835116,-69.84475404134011,840.3777461302776,86.51915086598416C829.5197844254392,242.88305577330843,860.6360153690518,457.9139007627057,853.1646595641827,610.7795898527786C845.6933037593135,763.6452789428515,815.6070496041533,881.3960821362084,795.5496113010629,1003.7132854064216C775.4921729979725,1126.0304886766348,730.1797625665012,1208.9096927327078,732.8200297456403,1344.6828094740576C735.4602969247795,1480.4559262154075,796.3850288573142,1682.4657874335307,811.3912143758979,1818.3519858545212C826.3973998944816,1954.2381842755117,820.9461547769353,2103.058664309087,822.8571428571428,2160L 1920 2160 L 1920 -1080 Z" fill="url(&quot;#SvgjsLinearGradient3634&quot;)"></path><path d="M1097.142857142857,-1080C1094.0011308412425,-1022.0006534232972,1093.786921882043,-881.1195144696524,1078.292499333169,-732.0039205397833C1062.7980767842948,-582.8883266099142,983.1075197257576,-359.2519680341419,1004.1763218496119,-185.3064364207856C1025.2451239734662,-11.36090480742925,1205.7669058384088,146.49896774281726,1204.7053120762946,311.6692691403546C1203.6437183141804,476.83957053789186,1024.8947243234006,661.5634245684022,997.8067592769269,805.7153719644384C970.7187942304532,949.8673193604747,1021.0642177875384,1018.5239991328149,1042.1775217974525,1176.5809535165718C1063.2908258073667,1334.6379079003286,1115.3256941121776,1590.153923853075,1124.4865833364117,1754.0570982669797C1133.6474725606458,1917.9602726808844,1101.700144841783,2092.342849711163,1097.142857142857,2160L 1920 2160 L 1920 -1080 Z" fill="url(&quot;#SvgjsLinearGradient3635&quot;)"></path><path d="M1371.4285714285716,-1080C1384.4312539805433,-988.521556120521,1459.871754474173,-725.3457109566309,1449.4446667404025,-531.1293367231265C1439.0175790066319,-336.91296248962203,1323.9521866203258,-112.7818487433347,1308.8660450259488,85.29824540102655C1293.7799034315717,283.3783395453878,1360.7252857216747,504.36098098491846,1358.9278171741403,657.351228143041C1357.1303486266058,810.3414753011635,1299.0713670574032,831.3041480539677,1298.081233740742,1003.2397283497615C1297.0911004240807,1175.1753086455556,1340.7624609928682,1496.1713313094313,1352.9870172741732,1688.9647099178044C1365.2115735554783,1881.7580885261775,1368.3549790695051,2081.4941183196343,1371.4285714285716,2160L 1920 2160 L 1920 -1080 Z" fill="url(&quot;#SvgjsLinearGradient3636&quot;)"></path><path d="M1645.7142857142856,-1080C1638.2687411324246,-933.6400736094496,1598.3932697917887,-461.937963698149,1601.0410182231199,-201.84044165669735C1603.688766654451,58.25708038475432,1670.4721776543993,201.66977727768966,1661.6007763022724,480.58513224870995C1652.7293749501455,759.5004872197303,1550.4603585416896,1191.749210210876,1547.8126101103585,1471.6516881694245C1545.1648616790274,1751.5541661279728,1629.3973397802977,2045.2752813615707,1645.7142857142856,2160L 1920 2160 L 1920 -1080 Z" fill="url(&quot;#SvgjsLinearGradient3637&quot;)"></path></g><defs><linearGradient x1="0.1" y1="0" x2="0" y2="1" id="SvgjsLinearGradient3631"><stop stop-color="#48ceff" offset="0"></stop><stop stop-color="#48ecff" offset="0"></stop></linearGradient><linearGradient x1="0.1" y1="0" x2="0" y2="1" id="SvgjsLinearGradient3632"><stop stop-color="#17c1ff" offset="0"></stop><stop stop-color="#17e8ff" offset="0.14285714285714285"></stop></linearGradient><linearGradient x1="0.1" y1="0" x2="0" y2="1" id="SvgjsLinearGradient3633"><stop stop-color="#00a8e5" offset="0"></stop><stop stop-color="#00cee5" offset="0.2857142857142857"></stop></linearGradient><linearGradient x1="0.1" y1="0" x2="0" y2="1" id="SvgjsLinearGradient3634"><stop stop-color="#0084b4" offset="0"></stop><stop stop-color="#00a2b4" offset="0.42857142857142855"></stop></linearGradient><linearGradient x1="0.1" y1="0" x2="0" y2="1" id="SvgjsLinearGradient3635"><stop stop-color="#006083" offset="0"></stop><stop stop-color="#007683" offset="0.5714285714285714"></stop></linearGradient><linearGradient x1="0.1" y1="0" x2="0" y2="1" id="SvgjsLinearGradient3636"><stop stop-color="#003c52" offset="0"></stop><stop stop-color="#004a52" offset="0.7142857142857143"></stop></linearGradient><linearGradient x1="0.1" y1="0" x2="0" y2="1" id="SvgjsLinearGradient3637"><stop stop-color="#001821" offset="0"></stop><stop stop-color="#001d21" offset="0.8571428571428571"></stop></linearGradient></defs></svg>